<?xml version="1.0" standalone="no"?>
<!DOCTYPE svg PUBLIC "-//W3C//DTD SVG 20010904//EN"
 "http://www.w3.org/TR/2001/REC-SVG-20010904/DTD/svg10.dtd">
<svg version="1.0" xmlns="http://www.w3.org/2000/svg"
 width="624.000000pt" height="624.000000pt" viewBox="0 0 624.000000 624.000000"
 preserveAspectRatio="xMidYMid meet">
<metadata>
Created by potrace 1.14, written by Peter Selinger 2001-2017
</metadata>
<g transform="translate(0.000000,624.000000) scale(0.100000,-0.100000)"
fill="#000000" stroke="none">
<path d="M1826 6123 c-1 -1 -27 -4 -58 -6 -61 -4 -100 -23 -120 -59 -10 -18
-14 -205 -18 -865 -5 -829 -5 -842 -26 -869 -22 -31 -25 -32 -109 -71 -288
-131 -495 -417 -540 -748 -7 -57 -9 -3018 -1 -3053 3 -13 8 -31 11 -41 5 -16
-8 -17 -160 -18 -141 0 -170 -3 -199 -18 -46 -25 -61 -56 -61 -126 1 -50 5
-63 29 -88 19 -20 42 -31 73 -36 25 -3 53 -8 64 -10 10 -2 21 1 24 6 4 5 10 7
15 4 7 -5 66 -6 120 -4 24 1 236 0 273 -2 6 0 53 0 102 0 50 1 108 -1 130 -2
22 -2 50 0 61 4 12 4 25 5 28 2 8 -8 222 -7 235 2 6 3 11 3 11 -2 0 -9 681 -9
705 0 8 4 15 3 15 -1 0 -8 203 -7 225 2 8 3 15 2 15 -2 0 -4 60 -6 132 -5 171
2 395 4 456 4 35 0 83 0 95 0 18 0 138 0 162 -1 11 0 31 0 45 1 14 0 30 1 35
1 6 -1 39 -1 75 -1 36 0 74 0 85 -1 11 0 31 0 45 1 14 0 30 1 35 1 6 -1 39 -1
75 -1 36 0 73 0 83 -1 49 -1 218 -2 242 -2 11 0 29 1 40 2 11 1 36 -1 55 -3
19 -2 50 0 68 4 17 4 32 4 32 0 0 -8 284 -6 305 3 8 3 15 2 15 -2 0 -6 168 -7
300 -3 39 2 207 3 230 1 8 0 26 0 40 1 31 1 23 1 150 0 170 -1 196 6 230 62
39 63 16 158 -46 192 -30 16 -66 18 -351 20 -197 1 -331 6 -351 13 -45 15
-110 64 -136 104 -50 75 -49 65 -50 665 -1 310 2 571 5 580 3 9 19 18 35 20
86 11 297 96 345 139 8 8 18 14 21 14 24 0 194 171 245 245 84 125 143 278
160 414 11 95 3 397 -13 476 -9 42 -14 73 -18 106 -5 40 -8 52 -36 174 -12 50
-24 97 -27 105 -7 19 -11 29 -17 56 -12 55 -55 120 -92 140 -38 20 -49 21
-750 20 l-711 -1 -34 -24 c-28 -19 -80 -104 -85 -140 0 -3 -4 -13 -7 -21 -12
-27 -51 -182 -61 -241 -3 -19 -8 -45 -11 -59 -6 -27 -14 -83 -20 -143 -2 -20
-7 -63 -11 -95 -7 -72 -12 -324 -5 -337 3 -5 6 -25 8 -45 2 -19 6 -42 10 -50
3 -8 7 -22 8 -30 17 -92 94 -254 163 -340 148 -186 324 -297 577 -363 l49 -13
-1 -579 c-1 -656 3 -623 -83 -711 -75 -78 -81 -79 -588 -80 -400 -1 -442 1
-437 15 4 9 9 34 12 56 8 60 7 2948 -1 3033 -19 201 -121 411 -269 557 -88 87
-137 121 -266 185 -113 56 -134 79 -137 151 -2 27 -6 54 -9 59 -3 6 -3 10 2
10 4 0 8 52 8 115 0 63 -4 115 -8 115 -5 0 -5 5 -1 11 6 10 10 162 4 184 -1 6
-2 13 -1 18 7 26 4 267 -2 267 -5 0 -5 5 -1 11 6 10 10 191 4 214 -1 6 -2 15
0 20 6 33 4 235 -3 235 -5 0 -5 5 -1 11 6 10 10 162 4 184 -1 6 -2 15 0 20 4
23 1 112 -5 145 -13 73 -65 112 -148 110 -47 -1 -305 -1 -324 -1 -27 2 -46 2
-130 1 -49 0 -132 1 -186 2 -54 2 -100 2 -101 1z m-51 -2023 c-3 -5 -12 -10
-18 -10 -7 0 -6 4 3 10 19 12 23 12 15 0z m2275 -729 c-6 -12 -8 -21 -4 -21 3
0 1 -7 -6 -15 -7 -8 -10 -15 -7 -15 3 0 0 -21 -8 -47 -7 -27 -16 -64 -19 -83
-3 -19 -7 -44 -10 -55 -4 -19 -12 -84 -21 -154 -7 -63 -18 -46 -11 19 9 92 18
145 51 293 13 56 35 110 42 103 3 -2 0 -14 -7 -25z"/>
<path d="M189 366 c-66 -45 -78 -145 -24 -202 19 -20 73 -44 100 -44 60 0 145
70 130 107 -2 7 0 15 5 18 5 3 5 18 0 34 -9 31 -39 91 -40 78 0 -4 -9 1 -20
11 -32 29 -107 28 -151 -2z"/>
<path d="M5930 377 c-37 -19 -70 -74 -70 -119 0 -82 59 -139 141 -134 139 8
177 190 52 255 -29 15 -92 14 -123 -2z"/>
</g>
</svg>
